# Blender v2.80 (sub 75) OBJ File: 'brick_wall.blend'
# www.blender.org
mtllib brick_wall_top.mtl
o brick_wall_top
v 1.519426 -0.074186 -0.127859
v 1.519426 -0.074186 0.123984
v -1.384064 -0.074186 0.123984
v -1.384064 -0.074186 -0.127859
v 1.519426 -0.064186 -0.137859
v -1.384064 -0.064186 -0.137859
v -1.384064 0.076192 -0.127859
v -1.384064 0.076192 0.123984
v 1.519426 0.076192 -0.127859
v 1.519426 0.076192 0.123984
v 1.519426 0.066192 0.133984
v -1.384064 0.066192 0.133984
v 1.519426 0.066192 -0.137859
v 1.519426 -0.064186 -0.137859
v -1.384064 -0.064186 -0.137859
v -1.384064 0.066192 -0.137859
v -1.384064 0.076192 -0.127859
v 1.519426 0.076192 -0.127859
v -1.384064 0.066192 0.133984
v -1.384064 -0.064186 0.133984
v 1.519426 0.066192 0.133984
v 1.519426 -0.064186 0.133984
v -1.384064 -0.074186 0.123984
v 1.519426 -0.074186 0.123984
v 1.519426 -0.064186 0.133984
v 1.519426 -0.074186 0.123984
v 1.529427 -0.064186 0.123984
v 1.529427 0.066192 0.123984
v 1.519426 0.066192 0.133984
v 1.519426 0.076192 0.123984
v 1.519426 -0.064186 -0.137859
v 1.529427 -0.064186 -0.127859
v 1.519426 -0.074186 -0.127859
v 1.529427 -0.064186 0.123984
v 1.519426 -0.074186 0.123984
v 1.529427 -0.064186 -0.127859
v 1.519426 -0.064186 -0.137859
v 1.519426 0.066192 -0.137859
v 1.529427 0.066192 -0.127859
v 1.519426 0.076192 -0.127859
v 1.529427 -0.064186 0.123984
v 1.519426 0.076192 0.123984
v 1.529427 0.066192 0.123984
v -1.395313 -0.064186 -0.127859
v -1.384064 -0.064186 -0.137859
v -1.384064 -0.074186 -0.127859
v -1.395313 0.066192 -0.127859
v -1.384064 0.066192 -0.137859
v -1.384064 0.076192 -0.127859
v -1.384064 0.076192 0.123984
v -1.395313 0.066192 0.123984
v -1.384064 0.066192 0.133984
v -1.384064 0.076192 -0.127859
v -1.395313 0.066192 -0.127859
v -1.395313 -0.064186 -0.127859
v -1.384064 -0.074186 -0.127859
v -1.384064 -0.074186 0.123984
v -1.395313 -0.064186 0.123984
v -1.384064 -0.064186 0.133984
v -1.384064 0.066192 0.133984
v -1.395313 0.066192 0.123984
v -1.395313 0.066192 0.123984
v -1.395313 0.066192 -0.127859
v -1.395313 -0.064186 -0.127859
v -1.395313 -0.064186 0.123984
vt 0.388800 4.516500
vt 0.244800 4.516500
vt 0.244800 2.856100
vt 0.388800 2.856100
vt 0.394600 4.516500
vt 0.394600 2.856100
vt 0.611200 2.856100
vt 0.755200 2.856100
vt 0.611200 4.516500
vt 0.755200 4.516500
vt 0.761000 4.516500
vt 0.761000 2.856100
vt 0.537300 4.516500
vt 0.462700 4.516500
vt 0.462700 2.856100
vt 0.537300 2.856100
vt 0.543000 2.856100
vt 0.543000 4.516500
vt 0.462700 2.856100
vt 0.537300 2.856100
vt 0.462700 4.516500
vt 0.537300 4.516500
vt 0.543000 2.856100
vt 0.543000 4.516500
vt 0.537300 1.303300
vt 0.543000 1.303300
vt 0.537300 1.309000
vt 0.462700 1.309000
vt 0.462700 1.303300
vt 0.457000 1.303300
vt 0.394600 1.303300
vt 0.388800 1.309000
vt 0.388800 1.303300
vt 0.244800 1.309000
vt 0.244800 1.303300
vt 0.388800 0.462700
vt 0.394600 0.462700
vt 0.394600 0.537300
vt 0.388800 0.537300
vt 0.388800 0.543000
vt 0.244800 0.462700
vt 0.244800 0.543000
vt 0.244800 0.537300
vt 0.462700 -0.309000
vt 0.462700 -0.303300
vt 0.457000 -0.303300
vt 0.537300 -0.309000
vt 0.537300 -0.303300
vt 0.543000 -0.303300
vt 0.755200 -0.303300
vt 0.755200 -0.309000
vt 0.761000 -0.303300
vt 0.611200 -0.303300
vt 0.611200 -0.309000
vt 0.611200 0.462700
vt 0.611200 0.457000
vt 0.755200 0.457000
vt 0.755200 0.462700
vt 0.761000 0.462700
vt 0.761000 0.537300
vt 0.755200 0.537300
vt 0.755200 0.537300
vt 0.611200 0.537300
vt 0.611200 0.462700
vt 0.755200 0.462700
vn 0.3416 -0.8756 -0.3416
vn 0.3416 -0.8756 0.3416
vn -0.3175 -0.8833 0.3449
vn -0.3175 -0.8833 -0.3449
vn 0.3416 -0.3416 -0.8756
vn -0.3175 -0.3449 -0.8833
vn -0.3175 0.8833 -0.3449
vn -0.3175 0.8833 0.3449
vn 0.3416 0.8756 -0.3416
vn 0.3416 0.8756 0.3416
vn 0.3416 0.3416 0.8756
vn -0.3175 0.3449 0.8833
vn 0.3416 0.3415 -0.8756
vn -0.3175 0.3450 -0.8833
vn -0.3175 -0.3449 0.8833
vn 0.3416 -0.3416 0.8756
vn 0.8756 -0.3416 0.3416
vn 0.8756 0.3416 0.3417
vn 0.3415 0.3416 0.8756
vn 0.3415 -0.3415 -0.8756
vn 0.8756 -0.3416 -0.3416
vn 0.3415 -0.3416 -0.8756
vn 0.3416 0.3416 -0.8756
vn 0.8756 0.3416 -0.3416
vn 0.8756 0.3416 0.3416
vn -0.7232 -0.4883 -0.4884
vn -0.3174 -0.3449 -0.8833
vn -0.3175 -0.8833 -0.3448
vn -0.7232 0.4883 -0.4883
vn -0.3175 0.3449 -0.8833
vn -0.3175 0.8833 -0.3448
vn -0.7232 0.4883 0.4883
vn -0.7232 0.4884 -0.4883
vn -0.7232 -0.4884 -0.4883
vn -0.7232 -0.4884 0.4883
vn -0.3174 0.3449 0.8833
vn -0.7232 0.4883 0.4884
vn -1.0000 0.0000 0.0000
usemtl cement
s 1
f 1/1/1 2/2/2 3/3/3
f 4/4/4 1/1/1 3/3/3
f 1/1/1 4/4/4 5/5/5
f 4/4/4 6/6/6 5/5/5
f 7/7/7 8/8/8 9/9/9
f 8/8/8 10/10/10 9/9/9
f 10/10/10 8/8/8 11/11/11
f 8/8/8 12/12/12 11/11/11
f 13/13/13 14/14/5 15/15/6
f 16/16/14 13/13/13 15/15/6
f 16/16/14 17/17/7 13/13/13
f 17/17/7 18/18/9 13/13/13
f 19/19/12 20/20/15 21/21/11
f 20/20/15 22/22/16 21/21/11
f 20/20/15 23/23/3 22/22/16
f 23/23/3 24/24/2 22/22/16
f 25/25/16 26/26/2 27/27/17
f 27/27/17 28/28/18 25/25/16
f 28/28/18 29/29/19 25/25/16
f 30/30/10 29/29/19 28/28/18
f 31/31/20 32/32/21 33/33/1
f 32/32/21 34/34/17 33/33/1
f 34/34/17 35/35/2 33/33/1
f 36/36/21 37/37/22 38/38/23
f 39/39/24 36/36/21 38/38/23
f 40/40/9 39/39/24 38/38/23
f 41/41/17 36/36/21 39/39/24
f 39/39/24 40/40/9 42/42/10
f 43/43/25 41/41/17 39/39/24
f 43/43/25 39/39/24 42/42/10
f 44/44/26 45/45/27 46/46/28
f 44/44/26 47/47/29 45/45/27
f 47/47/29 48/48/30 45/45/27
f 49/49/31 48/48/30 47/47/29
f 50/50/8 51/51/32 52/52/12
f 51/51/32 50/50/8 53/53/7
f 54/54/33 51/51/32 53/53/7
f 55/55/34 56/56/4 57/57/3
f 58/58/35 55/55/34 57/57/3
f 58/58/35 57/57/3 59/59/15
f 59/59/15 60/60/36 58/58/35
f 60/60/36 61/61/37 58/58/35
f 62/62/38 63/63/38 64/64/38
f 65/65/38 62/62/38 64/64/38
