# Blender v2.80 (sub 75) OBJ File: 'brick_wall.blend'
# www.blender.org
mtllib brick_wall.mtl
o brick_wall
v 1.387639 2.158355 0.078582
v 1.387639 2.148355 0.088582
v 1.397639 2.148355 0.078582
v 1.387639 2.158355 -0.078583
v 1.397639 2.148355 -0.078583
v 1.387639 2.148355 -0.088583
v -1.387641 2.158355 0.078582
v -1.397640 2.148355 0.078582
v -1.387641 2.148355 0.088582
v -1.387641 2.158355 -0.078582
v -1.387641 2.148355 -0.088582
v -1.397640 2.148355 -0.078582
v -1.397640 0.016622 0.078582
v -1.397640 0.016622 -0.078582
v -1.387641 0.016622 -0.088582
v -1.387641 0.016622 0.088582
v 1.387639 0.016622 -0.088583
v 1.387639 0.016622 0.088582
v 1.397639 0.016622 -0.078583
v 1.397639 0.016622 0.078582
v 1.387639 2.158355 0.078582
v 1.387639 2.158355 -0.078583
v -1.387641 2.158355 -0.078582
v -1.387641 2.158355 0.078582
v 1.397639 0.016622 0.078582
v 1.397639 0.016622 -0.078583
v 1.397639 2.148355 -0.078583
v 1.397639 2.148355 0.078582
v 1.387639 0.016622 -0.088583
v -1.387641 0.016622 -0.088582
v -1.387641 2.148355 -0.088582
v 1.387639 2.148355 -0.088583
v -1.397640 0.016622 -0.078582
v -1.397640 0.016622 0.078582
v -1.397640 2.148355 0.078582
v -1.397640 2.148355 -0.078582
v -1.387641 0.016622 0.088582
v 1.387639 0.016622 0.088582
v 1.387639 2.148355 0.088582
v -1.387641 2.148355 0.088582
v 1.397639 2.148355 -0.078583
v 1.387639 2.158355 -0.078583
v 1.387639 2.158355 0.078582
v 1.397639 2.148355 0.078582
v -1.397640 2.148355 0.078582
v -1.387641 2.158355 0.078582
v -1.387641 2.158355 -0.078582
v -1.397640 2.148355 -0.078582
v -1.387641 2.148355 -0.088582
v -1.387641 2.158355 -0.078582
v 1.387639 2.158355 -0.078583
v 1.387639 2.148355 -0.088583
v 1.387639 2.148355 0.088582
v 1.387639 2.158355 0.078582
v -1.387641 2.158355 0.078582
v -1.387641 2.148355 0.088582
v 1.387639 2.148355 -0.088583
v 1.397639 2.148355 -0.078583
v 1.397639 0.016622 -0.078583
v 1.387639 0.016622 -0.088583
v 1.387639 0.016622 0.088582
v 1.397639 0.016622 0.078582
v 1.397639 2.148355 0.078582
v 1.387639 2.148355 0.088582
v -1.397640 2.148355 -0.078582
v -1.387641 2.148355 -0.088582
v -1.387641 0.016622 -0.088582
v -1.397640 0.016622 -0.078582
v -1.387641 2.148355 0.088582
v -1.397640 2.148355 0.078582
v -1.397640 0.016622 0.078582
v -1.387641 0.016622 0.088582
vt 1.403700 1.197400
vt 1.403700 1.190900
vt 1.410300 1.190900
vt 0.551200 1.197400
vt 0.551200 1.190900
vt 0.557700 1.190900
vt 0.551200 1.197400
vt 0.551200 1.190900
vt 0.557700 1.190900
vt 1.403700 1.197400
vt 1.403700 1.190900
vt 1.410300 1.190900
vt 0.551200 1.410300
vt 0.448800 1.410300
vt 0.442300 1.403700
vt 0.557700 1.403700
vt 0.442300 -0.403700
vt 0.557700 -0.403700
vt 0.448800 -0.410300
vt 0.551200 -0.410300
vt 0.448800 -0.403700
vt 0.551200 -0.403700
vt 0.551200 1.403700
vt 0.448800 1.403700
vt 0.448800 -0.197400
vt 0.551200 -0.197400
vt 0.551200 1.190900
vt 0.448800 1.190900
vt -0.403700 -0.197400
vt 1.403700 -0.197400
vt 1.403700 1.190900
vt -0.403700 1.190900
vt 0.448800 -0.197400
vt 0.551200 -0.197400
vt 0.551200 1.190900
vt 0.448800 1.190900
vt -0.403700 -0.197400
vt 1.403700 -0.197400
vt 1.403700 1.190900
vt -0.403700 1.190900
vt 0.551200 1.190900
vt 0.551200 1.197400
vt 0.448800 1.197400
vt 0.448800 1.190900
vt 0.551200 1.190900
vt 0.551200 1.197400
vt 0.448800 1.197400
vt 0.448800 1.190900
vt 1.403700 1.190900
vt 1.403700 1.197400
vt -0.403700 1.197400
vt -0.403700 1.190900
vt 1.403700 1.190900
vt 1.403700 1.197400
vt -0.403700 1.197400
vt -0.403700 1.190900
vt 0.557700 1.190900
vt 0.551200 1.190900
vt 0.551200 -0.197400
vt 0.557700 -0.197400
vt 1.403700 -0.197400
vt 1.410300 -0.197400
vt 1.410300 1.190900
vt 1.403700 1.190900
vt 1.410300 1.190900
vt 1.403700 1.190900
vt 1.403700 -0.197400
vt 1.410300 -0.197400
vt 0.557700 1.190900
vt 0.551200 1.190900
vt 0.551200 -0.197400
vt 0.557700 -0.197400
vn 0.5773 0.5773 0.5774
vn 0.5773 0.5773 -0.5774
vn -0.5774 0.5773 0.5774
vn -0.5774 0.5773 -0.5774
vn -0.0000 -1.0000 0.0000
vn 0.0000 1.0000 0.0000
vn 1.0000 -0.0000 0.0000
vn -0.0000 0.0000 -1.0000
vn -1.0000 0.0000 0.0000
vn 0.0000 -0.0000 1.0000
vn 0.7071 0.7071 0.0000
vn -0.7071 0.7071 0.0000
vn 0.0000 0.7071 -0.7071
vn 0.0000 0.7071 0.7071
vn 0.7071 -0.0000 -0.7071
vn 0.7071 -0.0000 0.7071
vn -0.7071 0.0000 -0.7071
vn -0.7071 0.0000 0.7071
usemtl wall
s 1
f 1/1/1 2/2/1 3/3/1
f 4/4/2 5/5/2 6/6/2
f 7/7/3 8/8/3 9/9/3
f 10/10/4 11/11/4 12/12/4
f 13/13/5 14/14/5 15/15/5
f 15/15/5 16/16/5 13/13/5
f 15/15/5 17/17/5 16/16/5
f 17/17/5 18/18/5 16/16/5
f 17/17/5 19/19/5 18/18/5
f 19/19/5 20/20/5 18/18/5
f 21/21/6 22/22/6 23/23/6
f 24/24/6 21/21/6 23/23/6
f 25/25/7 26/26/7 27/27/7
f 28/28/7 25/25/7 27/27/7
f 29/29/8 30/30/8 31/31/8
f 32/32/8 29/29/8 31/31/8
f 33/33/9 34/34/9 35/35/9
f 36/36/9 33/33/9 35/35/9
f 37/37/10 38/38/10 39/39/10
f 40/40/10 37/37/10 39/39/10
f 41/41/11 42/42/11 43/43/11
f 44/44/11 41/41/11 43/43/11
f 45/45/12 46/46/12 47/47/12
f 48/48/12 45/45/12 47/47/12
f 49/49/13 50/50/13 51/51/13
f 52/52/13 49/49/13 51/51/13
f 53/53/14 54/54/14 55/55/14
f 56/56/14 53/53/14 55/55/14
f 57/57/15 58/58/15 59/59/15
f 60/60/15 57/57/15 59/59/15
f 61/61/16 62/62/16 63/63/16
f 64/64/16 61/61/16 63/63/16
f 65/65/17 66/66/17 67/67/17
f 68/68/17 65/65/17 67/67/17
f 69/69/18 70/70/18 71/71/18
f 72/72/18 69/69/18 71/71/18
