# Blender v2.80 (sub 75) OBJ File: 'metal_fence.blend'
# www.blender.org
mtllib metal_fence_column_large.mtl
o metal_fence_column_large
v 0.368095 2.654934 -0.368653
v -0.332780 2.654934 -0.368653
v -0.332780 2.654934 0.332222
v 0.368095 2.654934 0.332222
v -0.332780 2.654934 0.332222
v -0.342780 2.644934 0.332222
v -0.332780 2.644934 0.342220
v -0.332780 2.654934 -0.368653
v -0.342780 2.644934 -0.368653
v -0.342780 2.430121 -0.368653
v -0.342780 2.430121 0.332222
v -0.332780 2.644934 0.342220
v -0.332780 2.430121 0.342220
v -0.332780 2.430121 -0.378653
v -0.332780 2.644934 -0.378653
v 0.368095 2.430121 -0.378653
v 0.368095 2.644934 -0.378653
v 0.378096 2.430121 -0.368653
v 0.368095 2.654934 -0.368653
v -0.332780 2.654934 -0.368653
v -0.342780 2.644934 -0.368653
v 0.378096 2.644934 -0.368653
v 0.378096 2.430121 0.332222
v 0.378096 2.644934 0.332222
v 0.368095 2.430121 0.342220
v 0.368095 2.654934 0.332222
v 0.368095 2.654934 -0.368653
v 0.368095 2.644934 -0.378653
v 0.368095 2.644934 0.342220
v -0.332780 2.430121 0.342220
v -0.332780 2.644934 0.342220
v -0.332780 2.654934 0.332222
v 0.368095 2.654934 0.332222
v 0.378096 2.644934 0.332222
v 0.302930 2.420097 0.277060
v -0.267620 2.420097 0.277060
v -0.267620 0.002503 0.277059
v 0.302930 0.002503 0.277059
v 0.312940 2.420097 0.267059
v 0.312940 0.002503 0.267059
v 0.312940 2.420097 -0.303491
v 0.312940 0.002503 -0.303491
v 0.302930 2.420097 -0.313491
v 0.302930 0.002503 -0.313492
v -0.267620 2.420097 -0.313491
v -0.267620 0.002503 -0.313492
v -0.277620 2.420097 -0.303491
v -0.277620 0.002503 -0.303491
v -0.277620 2.420097 0.267059
v -0.277620 0.002503 0.267059
v -0.267620 2.420097 0.277060
v -0.267620 0.002503 0.277059
v -0.277620 2.420097 0.267059
v -0.332780 2.420117 0.332222
v -0.277620 2.420097 -0.303491
v -0.332780 2.420117 -0.368653
v -0.267620 2.420097 -0.313491
v -0.267620 2.420097 0.277060
v 0.368095 2.420117 0.332222
v 0.302930 2.420097 0.277060
v 0.302930 2.420097 -0.313491
v 0.368095 2.420117 -0.368653
v 0.312940 2.420097 -0.303491
v 0.312940 2.420097 0.267059
v -0.332780 2.430121 0.342220
v -0.342780 2.430121 0.332222
v 0.368095 2.430121 0.342220
v -0.342780 2.430121 -0.368653
v 0.378096 2.430121 0.332222
v -0.332780 2.430121 -0.378653
v 0.378096 2.430121 -0.368653
v 0.368095 2.430121 -0.378653
vt 0.210500 0.987200
vt 0.012800 0.987200
vt 0.012800 0.789500
vt 0.210500 0.789500
vt 0.998500 -0.626100
vt 0.990100 -0.626100
vt 0.994300 -0.634700
vt 0.997800 -0.134300
vt 0.990800 -0.134300
vt 0.840100 -0.134300
vt 0.840100 -0.626100
vt 0.990800 -0.633100
vt 0.840100 -0.633100
vt 0.840100 -0.127300
vt 0.990100 -0.127300
vt 0.840100 0.364400
vt 0.990800 0.364400
vt 0.840100 0.371400
vt 0.997800 0.364400
vt 0.998500 -0.127300
vt 0.994300 -0.135900
vt 0.990100 0.371400
vt 0.840100 0.863200
vt 0.990800 0.863200
vt 0.840100 0.870200
vt 0.997800 0.863200
vt 0.998500 0.371400
vt 0.994300 0.362900
vt 0.990100 0.870200
vt 0.840100 1.362000
vt 0.990800 1.362000
vt 0.997800 1.362000
vt 0.998500 0.870200
vt 0.994300 0.861600
vt 0.691900 0.550900
vt 0.691900 0.711800
vt 0.010000 0.711800
vt 0.010000 0.550900
vt 0.691900 0.548000
vt 0.010000 0.548000
vt 0.691900 0.387100
vt 0.010000 0.387100
vt 0.691900 0.384300
vt 0.010000 0.384300
vt 0.691900 0.223400
vt 0.010000 0.223400
vt 0.693800 0.220500
vt 0.011900 0.220500
vt 0.693800 0.059600
vt 0.011900 0.059600
vt 0.691900 0.056800
vt 0.010000 0.056800
vt 0.239300 0.968800
vt 0.223800 0.987200
vt 0.239300 0.807900
vt 0.223800 0.789500
vt 0.242100 0.805000
vt 0.242100 0.971600
vt 0.421500 0.987200
vt 0.403100 0.971600
vt 0.403100 0.805000
vt 0.421500 0.789500
vt 0.405900 0.807900
vt 0.405900 0.968800
vt 0.223800 0.990000
vt 0.220900 0.987200
vt 0.421500 0.990000
vt 0.220900 0.789500
vt 0.424300 0.987200
vt 0.223800 0.786700
vt 0.424300 0.789500
vt 0.421500 0.786700
vn 0.3416 0.8756 -0.3416
vn -0.3416 0.8756 -0.3416
vn -0.3416 0.8756 0.3416
vn 0.3416 0.8756 0.3416
vn -0.8756 0.3416 0.3416
vn -0.3416 0.3416 0.8756
vn -0.8756 0.3416 -0.3416
vn -0.8756 -0.3415 -0.3417
vn -0.8756 -0.3415 0.3416
vn -0.3416 -0.3415 0.8756
vn -0.3415 -0.3415 -0.8756
vn -0.3416 0.3416 -0.8756
vn 0.3416 -0.3415 -0.8756
vn 0.3416 0.3416 -0.8756
vn 0.8756 -0.3415 -0.3416
vn 0.8756 0.3416 -0.3416
vn 0.8756 -0.3415 0.3416
vn 0.8756 0.3416 0.3416
vn 0.3416 -0.3415 0.8756
vn 0.3416 0.3416 0.8756
vn 0.3829 -0.0000 0.9238
vn -0.3827 -0.0000 0.9239
vn 0.3828 -0.0000 0.9238
vn 0.9240 -0.0000 0.3825
vn 0.9238 -0.0000 0.3829
vn 0.9238 0.0000 -0.3829
vn 0.3825 0.0000 -0.9240
vn 0.3828 0.0000 -0.9238
vn -0.3827 0.0000 -0.9239
vn -0.9239 0.0000 -0.3827
vn -0.9239 -0.0000 0.3827
vn -0.3828 0.0000 0.9238
vn -0.0003 -1.0000 0.0001
vn -0.3417 -0.8755 0.3417
vn -0.0003 -1.0000 -0.0001
vn -0.3417 -0.8755 -0.3417
vn -0.0001 -1.0000 -0.0003
vn -0.0001 -1.0000 0.0003
vn 0.3417 -0.8755 0.3417
vn 0.0001 -1.0000 0.0003
vn 0.0001 -1.0000 -0.0003
vn 0.3417 -0.8755 -0.3417
vn 0.0003 -1.0000 -0.0001
vn 0.0003 -1.0000 0.0001
vn -0.8756 -0.3415 -0.3416
vn -0.3416 -0.3415 -0.8756
usemtl concbrick.002
s 1
f 1/1/1 2/2/2 3/3/3
f 4/4/4 1/1/1 3/3/3
f 5/5/3 6/6/5 7/7/6
f 6/6/5 5/5/3 8/8/2
f 9/9/7 6/6/5 8/8/2
f 6/6/5 9/9/7 10/10/8
f 11/11/9 6/6/5 10/10/8
f 12/12/6 6/6/5 11/11/9
f 13/13/10 12/12/6 11/11/9
f 10/10/8 9/9/7 14/14/11
f 9/9/7 15/15/12 14/14/11
f 14/14/11 15/15/12 16/16/13
f 15/15/12 17/17/14 16/16/13
f 16/16/13 17/17/14 18/18/15
f 17/17/14 15/15/12 19/19/1
f 15/15/12 20/20/2 19/19/1
f 20/20/2 15/15/12 21/21/7
f 17/17/14 22/22/16 18/18/15
f 18/18/15 22/22/16 23/23/17
f 22/22/16 24/24/18 23/23/17
f 23/23/17 24/24/18 25/25/19
f 24/24/18 22/22/16 26/26/4
f 22/22/16 27/27/1 26/26/4
f 27/27/1 22/22/16 28/28/14
f 24/24/18 29/29/20 25/25/19
f 25/25/19 29/29/20 30/30/10
f 29/29/20 31/31/6 30/30/10
f 31/31/6 29/29/20 32/32/3
f 29/29/20 33/33/4 32/32/3
f 33/33/4 29/29/20 34/34/18
f 35/35/21 36/36/22 37/37/22
f 38/38/23 35/35/21 37/37/22
f 39/39/24 35/35/21 38/38/23
f 40/40/25 39/39/24 38/38/23
f 41/41/26 39/39/24 40/40/25
f 42/42/26 41/41/26 40/40/25
f 43/43/27 41/41/26 42/42/26
f 44/44/28 43/43/27 42/42/26
f 45/45/29 43/43/27 44/44/28
f 46/46/29 45/45/29 44/44/28
f 47/47/30 45/45/29 46/46/29
f 48/48/30 47/47/30 46/46/29
f 49/49/31 47/47/30 48/48/30
f 50/50/31 49/49/31 48/48/30
f 49/49/31 50/50/31 51/51/22
f 50/50/31 52/52/32 51/51/22
f 53/53/33 54/54/34 55/55/35
f 54/54/34 56/56/36 55/55/35
f 56/56/36 57/57/37 55/55/35
f 54/54/34 53/53/33 58/58/38
f 59/59/39 54/54/34 58/58/38
f 60/60/40 59/59/39 58/58/38
f 57/57/37 56/56/36 61/61/41
f 56/56/36 62/62/42 61/61/41
f 62/62/42 63/63/43 61/61/41
f 59/59/39 60/60/40 64/64/44
f 63/63/43 62/62/42 64/64/44
f 62/62/42 59/59/39 64/64/44
f 54/54/34 59/59/39 65/65/10
f 65/65/10 66/66/9 54/54/34
f 59/59/39 67/67/19 65/65/10
f 54/54/34 66/66/9 68/68/45
f 56/56/36 54/54/34 68/68/45
f 69/69/17 67/67/19 59/59/39
f 59/59/39 62/62/42 69/69/17
f 68/68/45 70/70/46 56/56/36
f 62/62/42 71/71/15 69/69/17
f 56/56/36 70/70/46 72/72/13
f 72/72/13 71/71/15 62/62/42
f 62/62/42 56/56/36 72/72/13
