# Blender v2.80 (sub 75) OBJ File: 'metal_fence.blend'
# www.blender.org
mtllib metal_fence_column_small.mtl
o metal_fence_column_small
v -0.137529 -0.005258 -0.147244
v -0.137529 2.405067 -0.147243
v 0.145621 -0.005258 -0.147244
v 0.145621 2.405067 -0.147243
v 0.155621 -0.005258 -0.137244
v 0.141001 2.424278 -0.143351
v -0.132909 2.424278 -0.143351
v -0.088289 2.529856 -0.098735
v 0.096381 2.529856 -0.098735
v 0.155621 2.405067 -0.137243
v 0.155621 -0.005258 0.145906
v 0.155621 2.405067 0.145906
v 0.145621 -0.005258 0.155905
v 0.151731 2.424278 0.141283
v 0.151731 2.424278 -0.132620
v 0.107111 2.529856 -0.088005
v 0.107111 2.529856 0.096668
v 0.145621 2.405067 0.155906
v -0.137529 -0.005258 0.155905
v -0.137529 2.405067 0.155906
v -0.147529 -0.005258 0.145906
v -0.132909 2.424278 0.152014
v 0.141001 2.424278 0.152014
v 0.096381 2.529856 0.107399
v -0.088289 2.529856 0.107399
v -0.147529 2.405067 0.145906
v -0.147529 -0.005258 -0.137244
v -0.147529 2.405067 -0.137243
v -0.137529 -0.005258 -0.147244
v -0.137529 2.405067 -0.147243
v -0.143639 2.424278 -0.132620
v -0.143639 2.424278 0.141283
v -0.099019 2.529856 0.096668
v -0.099019 2.529856 -0.088005
v -0.143639 2.424278 0.141283
v -0.147529 2.405067 0.145906
v -0.137529 2.405067 0.155906
v -0.132909 2.424278 0.152014
v -0.088289 2.529856 0.107399
v -0.099019 2.529856 0.096668
v 0.141001 2.424278 0.152014
v 0.145621 2.405067 0.155906
v 0.155621 2.405067 0.145906
v 0.151731 2.424278 0.141283
v 0.107111 2.529856 0.096668
v 0.096381 2.529856 0.107399
v -0.132909 2.424278 -0.143351
v -0.137529 2.405067 -0.147243
v -0.147529 2.405067 -0.137243
v -0.143639 2.424278 -0.132620
v -0.099019 2.529856 -0.088005
v -0.088289 2.529856 -0.098735
v 0.151731 2.424278 -0.132620
v 0.155621 2.405067 -0.137243
v 0.145621 2.405067 -0.147243
v 0.141001 2.424278 -0.143351
v 0.096381 2.529856 -0.098735
v 0.107111 2.529856 -0.088005
v -0.085129 2.539067 0.093506
v -0.099019 2.529856 0.096668
v -0.088289 2.529856 0.107399
v 0.096381 2.529856 0.107399
v -0.085129 2.539067 -0.084844
v -0.099019 2.529856 -0.088005
v -0.088289 2.529856 -0.098735
v 0.093221 2.539067 -0.084844
v 0.096381 2.529856 -0.098735
v 0.107111 2.529856 -0.088005
v 0.093221 2.539067 0.093506
v 0.107111 2.529856 0.096668
vt 0.693000 0.010900
vt 0.693000 0.942700
vt 0.583500 0.010900
vt 0.583500 0.942700
vt 0.579600 0.010900
vt 0.585300 0.950100
vt 0.691200 0.950100
vt 0.673900 0.990900
vt 0.602500 0.990900
vt 0.579600 0.942700
vt 0.470200 0.010900
vt 0.470200 0.942700
vt 0.466300 0.010900
vt 0.472000 0.950100
vt 0.577900 0.950100
vt 0.560600 0.990900
vt 0.489200 0.990900
vt 0.466300 0.942700
vt 0.356900 0.010900
vt 0.356900 0.942700
vt 0.353000 0.010900
vt 0.358600 0.950100
vt 0.464500 0.950100
vt 0.447300 0.990900
vt 0.375900 0.990900
vt 0.353000 0.942700
vt 0.243500 0.010900
vt 0.243500 0.942700
vt 0.239700 0.010900
vt 0.239700 0.942700
vt 0.245300 0.950100
vt 0.351200 0.950100
vt 0.334000 0.990900
vt 0.262600 0.990900
vt 0.123700 0.213400
vt 0.131400 0.213600
vt 0.131400 0.219100
vt 0.123700 0.219300
vt 0.077400 0.219300
vt 0.077400 0.213400
vt 0.210100 0.159700
vt 0.217800 0.159900
vt 0.217800 0.165400
vt 0.210100 0.165600
vt 0.163800 0.165600
vt 0.163800 0.159700
vt 0.123700 0.246200
vt 0.131400 0.246400
vt 0.131400 0.251800
vt 0.123700 0.252000
vt 0.077400 0.252000
vt 0.077400 0.246200
vt 0.210100 0.127000
vt 0.217800 0.127200
vt 0.217800 0.132700
vt 0.210100 0.132900
vt 0.163800 0.132900
vt 0.163800 0.127000
vt 0.212500 0.246600
vt 0.217800 0.247900
vt 0.213700 0.252000
vt 0.142300 0.252000
vt 0.212500 0.177700
vt 0.217800 0.176500
vt 0.213700 0.172300
vt 0.143500 0.177700
vt 0.142300 0.172300
vt 0.138200 0.177000
vt 0.143500 0.246600
vt 0.138200 0.248400
vn -0.3827 0.0000 -0.9239
vn -0.3926 0.1334 -0.9100
vn 0.3827 0.0000 -0.9239
vn 0.3926 0.1334 -0.9100
vn 0.9239 0.0000 -0.3827
vn 0.3525 0.3696 -0.8597
vn -0.3525 0.3696 -0.8597
vn -0.2574 0.6475 -0.7173
vn 0.2574 0.6475 -0.7173
vn 0.9100 0.1334 -0.3926
vn 0.9239 -0.0000 0.3827
vn 0.9100 0.1334 0.3926
vn 0.3827 -0.0000 0.9239
vn 0.8597 0.3696 0.3525
vn 0.8597 0.3696 -0.3525
vn 0.7173 0.6475 -0.2574
vn 0.7173 0.6475 0.2574
vn 0.3926 0.1334 0.9100
vn -0.3827 -0.0000 0.9239
vn -0.3926 0.1334 0.9100
vn -0.9239 -0.0000 0.3827
vn -0.3525 0.3696 0.8597
vn 0.3525 0.3696 0.8597
vn 0.2574 0.6475 0.7173
vn -0.2574 0.6475 0.7173
vn -0.9100 0.1334 0.3926
vn -0.9239 0.0000 -0.3827
vn -0.9100 0.1334 -0.3926
vn -0.8598 0.3696 -0.3525
vn -0.8597 0.3696 0.3525
vn -0.7173 0.6475 0.2574
vn -0.7173 0.6475 -0.2574
vn -0.9100 0.1333 0.3925
vn -0.7173 0.6474 0.2574
vn 0.3927 0.1334 0.9100
vn 0.2573 0.6476 0.7172
vn -0.3926 0.1333 -0.9100
vn -0.8597 0.3696 -0.3525
vn -0.7173 0.6474 -0.2574
vn -0.2575 0.6474 -0.7173
vn 0.9099 0.1335 -0.3927
vn 0.3926 0.1335 -0.9100
vn 0.7173 0.6475 -0.2573
vn -0.2453 0.9379 0.2452
vn -0.2453 0.9379 -0.2452
vn 0.2453 0.9379 -0.2452
vn 0.2453 0.9379 0.2452
usemtl concbrick.001
s 1
f 1/1/1 2/2/2 3/3/3
f 2/2/2 4/4/4 3/3/3
f 3/3/3 4/4/4 5/5/5
f 4/4/4 2/2/2 6/6/6
f 2/2/2 7/7/7 6/6/6
f 7/7/7 8/8/8 6/6/6
f 8/8/8 9/9/9 6/6/6
f 4/4/4 10/10/10 5/5/5
f 5/5/5 10/10/10 11/11/11
f 10/10/10 12/12/12 11/11/11
f 11/11/11 12/12/12 13/13/13
f 12/12/12 10/10/10 14/14/14
f 10/10/10 15/15/15 14/14/14
f 15/15/15 16/16/16 14/14/14
f 16/16/16 17/17/17 14/14/14
f 12/12/12 18/18/18 13/13/13
f 13/13/13 18/18/18 19/19/19
f 18/18/18 20/20/20 19/19/19
f 21/21/21 19/19/19 20/20/20
f 20/20/20 18/18/18 22/22/22
f 18/18/18 23/23/23 22/22/22
f 23/23/23 24/24/24 22/22/22
f 24/24/24 25/25/25 22/22/22
f 26/26/26 21/21/21 20/20/20
f 21/21/21 26/26/26 27/27/27
f 26/26/26 28/28/28 27/27/27
f 27/27/27 28/28/28 29/29/1
f 28/28/28 30/30/2 29/29/1
f 28/28/28 26/26/26 31/31/29
f 26/26/26 32/32/30 31/31/29
f 32/32/30 33/33/31 31/31/29
f 33/33/31 34/34/32 31/31/29
f 35/35/30 36/36/33 37/37/20
f 38/38/22 35/35/30 37/37/20
f 38/38/22 39/39/25 35/35/30
f 39/39/25 40/40/34 35/35/30
f 41/41/23 42/42/35 43/43/12
f 44/44/14 41/41/23 43/43/12
f 44/44/14 45/45/17 41/41/23
f 45/45/17 46/46/36 41/41/23
f 47/47/7 48/48/37 49/49/28
f 50/50/38 47/47/7 49/49/28
f 50/50/38 51/51/39 47/47/7
f 51/51/39 52/52/40 47/47/7
f 53/53/15 54/54/41 55/55/42
f 56/56/6 53/53/15 55/55/42
f 56/56/6 57/57/9 53/53/15
f 57/57/9 58/58/43 53/53/15
f 59/59/44 60/60/31 61/61/25
f 61/61/25 62/62/24 59/59/44
f 60/60/31 59/59/44 63/63/45
f 64/64/32 60/60/31 63/63/45
f 63/63/45 65/65/8 64/64/32
f 65/65/8 63/63/45 66/66/46
f 66/66/46 63/63/45 59/59/44
f 67/67/9 65/65/8 66/66/46
f 66/66/46 68/68/16 67/67/9
f 62/62/24 69/69/47 59/59/44
f 69/69/47 66/66/46 59/59/44
f 68/68/16 66/66/46 69/69/47
f 69/69/47 62/62/24 70/70/17
f 70/70/17 68/68/16 69/69/47
